# xmcd
#
# Track frame offsets:
#	150
#	17757
#	33433
#	51092
#	66875
#	83996
#	96048
#	116639
#	133734
#	151007
#	166831
#	187110
#	203103
#	223973
#	239966
#	256521
#
# Disc length: 3647 seconds
#
# Revision: 0
# Processed by: cddbd v1.5.2PL0 Copyright (c) Steve Scherf et al.
# Submitted via: EZCDAudioConverter 1.0.8.1
#
DISCID=e10e3d10
DTITLE=Various Artist - 顧聽生煇 樂壇大宗師經典半世紀 Disc 3 
DYEAR=2013
DGENRE=Pop
TTITLE0=林志美 - 甚麼是緣份
TTITLE1=陳百強 - 畫出彩虹
TTITLE2=譚詠麟 - 誰可改變
TTITLE3=葉蒨文 - 願死也為情
TTITLE4=顧嘉煇 - 雪山飛狐
TTITLE5=譚詠麟 - 楚河漢界
TTITLE6=張學友 - 楚歌
TTITLE7=張學友、鄺美雲 - 祇有情永在
TTITLE8=甄妮 - 留下我美夢
TTITLE9=羅嘉良 - 季節
TTITLE10=張國榮 - 奔向未來日子
TTITLE11=麥潔文 - 沒哭聲的女子
TTITLE12=張國榮 - 當年情 (Live)
TTITLE13=林子祥 - 長路漫漫伴你闖
TTITLE14=張學友、黎瑞恩 - 長流不息
TTITLE15=李樂詩 - 真情細說
EXTD=
EXTT0=
EXTT1=
EXTT2=
EXTT3=
EXTT4=
EXTT5=
EXTT6=
EXTT7=
EXTT8=
EXTT9=
EXTT10=
EXTT11=
EXTT12=
EXTT13=
EXTT14=
EXTT15=
PLAYORDER=
